<svg xmlns="http://www.w3.org/2000/svg" viewBox="0 0 1200 800" fill="none">
  <g stroke="#c7d9b4" stroke-linecap="round" stroke-linejoin="round">
    <g opacity=".34">
      <path d="M1018 792c-4-176 26-334 124-478" stroke-width="3"/>
      <path d="M1052 628c58-13 94-48 112-101-59 9-96 42-112 101Z" fill="#9fbe94" fill-opacity=".16" stroke-width="2"/>
      <path d="M1032 704c-63-9-105-43-129-92 64 5 106 35 129 92Z" fill="#9fbe94" fill-opacity=".12" stroke-width="2"/>
      <path d="M1090 510c48-11 78-40 94-84-50 6-82 34-94 84Z" fill="#d8bd75" fill-opacity=".08" stroke-width="2"/>
    </g>
    <g opacity=".2">
      <path d="M8 676c78-80 137-177 166-292" stroke-width="3"/>
      <path d="M91 548c-49-1-84-23-107-64 50-3 87 17 107 64Z" fill="#9fbe94" fill-opacity=".14" stroke-width="2"/>
      <path d="M133 464c43-8 72-32 88-70-45 4-75 26-88 70Z" fill="#9fbe94" fill-opacity=".12" stroke-width="2"/>
    </g>
    <g opacity=".26" stroke-width="2.4">
      <path d="M846 142c24-21 49-22 75-2"/>
      <path d="M920 140c23-19 46-18 69 3"/>
      <path d="M126 174c15-13 31-14 47-1"/>
      <path d="M173 173c14-12 29-11 43 2"/>
    </g>
  </g>
  <g fill="#eadfbd">
    <ellipse cx="982" cy="188" rx="8" ry="3" transform="rotate(-28 982 188)" opacity=".2"/>
    <ellipse cx="1081" cy="242" rx="7" ry="3" transform="rotate(31 1081 242)" opacity=".18"/>
    <ellipse cx="1124" cy="128" rx="6" ry="2.5" transform="rotate(-14 1124 128)" opacity=".2"/>
    <ellipse cx="188" cy="294" rx="7" ry="3" transform="rotate(24 188 294)" opacity=".15"/>
    <ellipse cx="75" cy="358" rx="6" ry="2.5" transform="rotate(-38 75 358)" opacity=".16"/>
    <ellipse cx="925" cy="354" rx="5" ry="2" transform="rotate(18 925 354)" opacity=".14"/>
  </g>
</svg>
