<svg xmlns="http://www.w3.org/2000/svg" width="1200" height="675" viewBox="0 0 1200 675" role="img" aria-labelledby="title desc">
  <title id="title">Corredor silencioso com luz ao fundo</title>
  <desc id="desc">Imagem simbólica para um ensaio sobre medo, pensamento e futuro: um corredor sereno, parcialmente iluminado, com uma abertura de luz distante.</desc>
  <defs>
    <linearGradient id="bg" x1="0" x2="1" y1="0" y2="1">
      <stop offset="0" stop-color="#efeedd"/>
      <stop offset="0.52" stop-color="#dfe8d0"/>
      <stop offset="1" stop-color="#b7c7ad"/>
    </linearGradient>
    <radialGradient id="light" cx="68%" cy="42%" r="42%">
      <stop offset="0" stop-color="#fff9df" stop-opacity="0.92"/>
      <stop offset="0.44" stop-color="#f2efcf" stop-opacity="0.42"/>
      <stop offset="1" stop-color="#2a231a" stop-opacity="0"/>
    </radialGradient>
    <filter id="soft">
      <feGaussianBlur stdDeviation="18"/>
    </filter>
  </defs>
  <rect width="1200" height="675" fill="url(#bg)"/>
  <rect width="1200" height="675" fill="url(#light)"/>
  <path d="M0 675 L355 0 H493 L272 675 Z" fill="#2a231a" opacity="0.055"/>
  <path d="M1200 675 L833 0 H708 L947 675 Z" fill="#2a231a" opacity="0.07"/>
  <path d="M392 0 H805 L735 675 H457 Z" fill="#fff8df" opacity="0.22"/>
  <path d="M520 0 H675 L650 675 H548 Z" fill="#fffdf2" opacity="0.24"/>
  <rect x="548" y="122" width="108" height="338" rx="54" fill="#fff7d8" opacity="0.44" filter="url(#soft)"/>
  <path d="M0 565 C204 525 366 552 511 570 C693 593 844 573 1200 522 V675 H0 Z" fill="#2a231a" opacity="0.055"/>
  <path d="M421 675 L552 0" stroke="#2a231a" stroke-opacity="0.07" stroke-width="2"/>
  <path d="M775 675 L653 0" stroke="#2a231a" stroke-opacity="0.07" stroke-width="2"/>
  <circle cx="594" cy="422" r="4" fill="#2a231a" opacity="0.22"/>
  <circle cx="612" cy="424" r="4" fill="#2a231a" opacity="0.12"/>
</svg>
