<svg xmlns="http://www.w3.org/2000/svg" width="1200" height="675" viewBox="0 0 1200 675" role="img" aria-labelledby="title desc">
  <title id="title">Água calma perturbada por um ponto</title>
  <desc id="desc">Imagem simbólica para um ensaio sobre Marco Aurélio, ansiedade e futuro: uma superfície de água serena com círculos sutis partindo de um único ponto.</desc>
  <defs>
    <linearGradient id="bg" x1="0" x2="1" y1="0" y2="1">
      <stop offset="0" stop-color="#f5f1df"/>
      <stop offset="0.48" stop-color="#dfe8d2"/>
      <stop offset="1" stop-color="#aebfa7"/>
    </linearGradient>
    <radialGradient id="glow" cx="52%" cy="45%" r="48%">
      <stop offset="0" stop-color="#fff7d7" stop-opacity="0.55"/>
      <stop offset="0.52" stop-color="#dce8cf" stop-opacity="0.22"/>
      <stop offset="1" stop-color="#2a231a" stop-opacity="0"/>
    </radialGradient>
    <filter id="blur">
      <feGaussianBlur stdDeviation="10"/>
    </filter>
  </defs>
  <rect width="1200" height="675" fill="url(#bg)"/>
  <rect width="1200" height="675" fill="url(#glow)"/>
  <g opacity="0.28" fill="none" stroke="#2a231a">
    <ellipse cx="604" cy="356" rx="56" ry="18" stroke-opacity="0.18" stroke-width="2"/>
    <ellipse cx="604" cy="356" rx="132" ry="42" stroke-opacity="0.13" stroke-width="2"/>
    <ellipse cx="604" cy="356" rx="230" ry="76" stroke-opacity="0.1" stroke-width="2"/>
    <ellipse cx="604" cy="356" rx="346" ry="118" stroke-opacity="0.08" stroke-width="2"/>
  </g>
  <circle cx="604" cy="356" r="5" fill="#2a231a" opacity="0.24"/>
  <path d="M0 450 C130 430 226 463 358 446 C500 428 632 430 777 450 C939 472 1057 441 1200 458" fill="none" stroke="#2a231a" stroke-opacity="0.055" stroke-width="6" filter="url(#blur)"/>
  <path d="M0 515 C167 494 290 527 451 511 C612 495 754 506 904 522 C1035 536 1122 512 1200 505" fill="none" stroke="#2a231a" stroke-opacity="0.055" stroke-width="5" filter="url(#blur)"/>
  <g opacity="0.12">
    <path d="M338 145 h524" stroke="#2a231a" stroke-width="1"/>
    <path d="M388 173 h424" stroke="#2a231a" stroke-width="1"/>
    <path d="M438 201 h324" stroke="#2a231a" stroke-width="1"/>
  </g>
  <path d="M320 118 C430 72 566 70 700 96 C812 118 918 115 1010 82" fill="none" stroke="#ffffff" stroke-opacity="0.24" stroke-width="18" filter="url(#blur)"/>
</svg>
